<svg width="67" height="62" viewBox="0 0 67 62" fill="none" xmlns="http://www.w3.org/2000/svg">
<path d="M38.5717 48.5466C39.5156 49.4717 39.1243 51.5962 37.4666 50.4426C37.4666 50.4426 32.1182 45.8716 30.1911 47.2529C28.264 48.6341 29.7306 53.5369 25.31 54.0914C20.8894 54.6458 15.2716 53.3516 11.4696 52.2091C2.29844 49.4532 0 38.9358 0 28.9553C0 21.3775 0.561481 18.4203 1.81122 13.8225C4.70245 3.1854 15.1794 0 32.9538 0C50.7283 0 61.5462 2.9499 64.5379 13.2521C65.5556 16.7569 66.4437 21.4699 66.4437 28.9553C66.4437 39.3054 64.5288 50.4612 55.4073 52.2091C51.4361 53.2247 46.7682 52.3274 42.1634 54.5534C37.5587 56.7794 28.4412 67.4911 26.3807 56.7713C26.1502 55.5723 28.762 55.3102 29.4543 56.7713C31.5725 61.242 36.7298 53.5493 42.1634 51.5962C45.8473 50.2721 51.0788 50.5358 55.2231 49.5185C61.0488 48.0884 62.8636 39.213 62.8636 28.9553C62.8636 21.6548 62.238 18.6976 61.3182 13.8436C59.6767 5.18075 46.2155 3.74167 32.9538 3.74167C19.6921 3.74167 7.23187 5.81611 5.22195 14.1908C4.2734 18.1431 3.48192 23.2729 3.52992 28.9553C3.60872 38.2859 4.94233 47.3925 12.0663 49.7033C16.1926 51.0418 21.2578 52.2431 24.2049 51.5962C27.1519 50.9494 25.6784 45.035 28.4412 43.926C31.2041 42.8171 34.6116 44.6653 38.5717 48.5466Z" fill="#FFC815"/>
<path d="M28.5088 23.116V15.4805C28.5088 13.9666 27.6371 13.0605 26.1916 13.0605C24.735 13.0605 23.8744 13.9666 23.8744 15.4805V22.3978C23.8744 23.8785 23.135 24.7183 21.844 24.7183C20.5309 24.7183 19.8137 23.9006 19.8137 22.3978V15.4805C19.8137 13.9666 18.9419 13.0605 17.4964 13.0605C16.0399 13.0605 15.1792 13.9666 15.1792 15.4805V23.116C15.1792 26.4752 17.7502 28.5858 21.844 28.5858C25.9378 28.5858 28.5088 26.4752 28.5088 23.116Z" fill="white"/>
<path d="M35.1295 25.978V20.8287H35.3061L39.3667 26.6741C40.2605 27.967 40.8674 28.3648 41.8384 28.3648C43.1957 28.3648 43.9129 27.5029 43.9129 25.8896V15.4473C43.9129 13.9445 43.1074 13.0605 41.7612 13.0605C40.4371 13.0605 39.6647 13.9335 39.6647 15.4473V20.464H39.4881L35.4605 14.707C34.5667 13.4362 34.0261 13.0605 33.0881 13.0605C31.6316 13.0605 30.8812 13.9556 30.8812 15.7015V25.978C30.8812 27.4697 31.6757 28.3648 33.0219 28.3648C34.3571 28.3648 35.1295 27.4918 35.1295 25.978Z" fill="white"/>
<path d="M48.8122 28.3648C50.2908 28.3648 51.0964 27.4808 51.0964 25.8785V15.5468C51.0964 13.9556 50.2688 13.0605 48.7791 13.0605C47.2895 13.0605 46.4619 13.9445 46.4619 15.5468V25.8785C46.4619 27.4697 47.3115 28.3648 48.8122 28.3648Z" fill="white"/>
<path d="M17.4455 39.7201V37.3646H17.5291C17.8311 38.0342 18.5316 38.4168 19.4634 38.4168C21.0636 38.4168 22.0275 37.3527 22.0275 35.589V34.7102C22.0275 32.9466 21.0764 31.8884 19.4891 31.8884C18.5316 31.8884 17.7797 32.3129 17.5034 32.9944H17.4198V32.6895C17.3813 32.1993 17.0856 31.9303 16.5844 31.9303C16.051 31.9303 15.7554 32.2411 15.7554 32.8031V39.7201C15.7554 40.2761 16.0574 40.587 16.5972 40.587C17.1435 40.587 17.4455 40.2761 17.4455 39.7201ZM17.4455 35.613V34.77C17.4455 33.7537 17.9918 33.1499 18.8786 33.1499C19.7847 33.1499 20.2988 33.7716 20.2988 34.8657V35.4396C20.2988 36.5277 19.7847 37.1554 18.8915 37.1554C18.0239 37.1554 17.4455 36.5456 17.4455 35.613Z" fill="white"/>
<path d="M24.3539 38.3929C24.8744 38.3929 25.2022 38.1 25.2022 37.526V30.5672C25.2022 29.9933 24.8744 29.6943 24.3539 29.6943C23.8269 29.6943 23.5056 29.9933 23.5056 30.5672V37.526C23.5056 38.1 23.8269 38.3929 24.3539 38.3929Z" fill="white"/>
<path d="M30.6646 37.526H30.7482V37.7472C30.7996 38.1598 31.0952 38.3929 31.545 38.3929C32.072 38.3929 32.3676 38.088 32.3676 37.55V34.0825C32.3676 32.6776 31.3651 31.8884 29.5786 31.8884C28.8331 31.8884 28.2611 32.008 27.8306 32.2172C27.2329 32.4982 26.9566 32.8748 26.9566 33.2455C26.9566 33.5683 27.1879 33.8015 27.5607 33.8015C27.837 33.8015 28.0169 33.7357 28.2097 33.5923C28.5889 33.2754 28.9552 33.096 29.4693 33.096C30.2469 33.096 30.6775 33.4308 30.6775 34.0705V34.5906H29.058C27.5093 34.5906 26.5774 35.314 26.5774 36.4858C26.5774 37.6396 27.4771 38.4168 28.8074 38.4168C29.6428 38.4168 30.3176 38.094 30.6646 37.526ZM28.2611 36.3901C28.2611 35.87 28.6724 35.5592 29.3665 35.5592H30.6775V36.2168C30.6775 36.8146 30.1055 37.2809 29.3729 37.2809C28.711 37.2809 28.2611 36.9162 28.2611 36.3901Z" fill="white"/>
<path d="M33.4922 39.8995C33.4922 40.0669 33.5565 40.2103 33.6786 40.3239C33.8778 40.5033 34.2249 40.5989 34.6683 40.5989C36.0371 40.5989 36.8275 40.0131 37.3609 38.5902L39.411 33.12C39.4816 32.9346 39.5074 32.8091 39.5074 32.6895C39.5074 32.265 39.1668 31.9542 38.7041 31.9542C38.2606 31.9542 37.9779 32.1993 37.8365 32.7075L36.4998 37.0298H36.4291L35.1053 32.7075C34.9703 32.1993 34.6811 31.9542 34.2249 31.9542C33.7429 31.9542 33.3894 32.271 33.3894 32.6955C33.3894 32.8091 33.4087 32.9466 33.473 33.12L35.478 38.4108C35.478 38.4527 35.4137 38.7157 35.3945 38.7516C35.2531 39.1582 34.9318 39.4212 34.5462 39.4212C34.3534 39.4212 34.2377 39.3913 34.1027 39.3913C33.7364 39.3913 33.4922 39.6065 33.4922 39.8995Z" fill="white"/>
<path d="M40.2657 35.5771C40.2657 37.3766 41.4995 38.4706 43.4981 38.4706C44.3786 38.4706 45.1562 38.2554 45.606 37.9027C45.9273 37.6875 46.1137 37.4184 46.1137 37.1374C46.1137 36.7907 45.8695 36.5635 45.516 36.5635C45.2526 36.5635 45.1369 36.6532 44.8091 36.8864C44.5071 37.1195 44.1344 37.2391 43.6074 37.2391C42.5985 37.2391 41.9944 36.6711 41.9879 35.7863V35.5113H45.4389C46.0751 35.5113 46.2936 35.2782 46.2936 34.5667C46.2936 33.0004 45.0662 31.8525 43.3311 31.8525C41.4995 31.8525 40.2657 33.0243 40.2657 34.758V35.5771ZM41.9879 34.5129V34.501C41.9879 33.6461 42.5213 33.0721 43.3568 33.0721C44.1601 33.0721 44.6742 33.6341 44.6742 34.501V34.5129H41.9879Z" fill="white"/>
<path d="M49.3783 37.526V34.7162C49.3783 33.7537 49.8603 33.2694 50.8114 33.2515C51.0877 33.2455 51.2934 33.1977 51.4283 33.102C51.5954 32.9884 51.6725 32.821 51.6725 32.5879C51.6725 32.3607 51.589 32.1814 51.4283 32.0618C51.2805 31.9482 51.0813 31.8884 50.8307 31.8884C50.188 31.8884 49.6868 32.2232 49.4104 32.845H49.3397V32.6955C49.3076 32.2053 49.0249 31.9303 48.5236 31.9303C47.9902 31.9303 47.6882 32.2471 47.6882 32.8031V37.526C47.6882 38.0761 47.9709 38.3929 48.5172 38.3929C49.0698 38.3929 49.3783 38.0761 49.3783 37.526Z" fill="white"/>
</svg>
